PathFileType	3	(X/Y/Z)	walking_3__view1_aligned.trc
DataRate	CameraRate	NumFrames	NumMarkers	Units	OrigDataRate	OrigDataStartFrame	OrigNumFrames
100.0	100.0	17	19	mm	100.0	1019	6348
Frame#	Time	pelvis			neck			head			hip_left			hip_right			knee_left			knee_right			ankle_left			ankle_right			heel_left			heel_right			toe_left			toe_right			shoulder_left			shoulder_right			elbow_left			elbow_right			wrist_left			wrist_right			
		X1	Y1	Z1	X2	Y2	Z2	X3	Y3	Z3	X4	Y4	Z4	X5	Y5	Z5	X6	Y6	Z6	X7	Y7	Z7	X8	Y8	Z8	X9	Y9	Z9	X10	Y10	Z10	X11	Y11	Z11	X12	Y12	Z12	X13	Y13	Z13	X14	Y14	Z14	X15	Y15	Z15	X16	Y16	Z16	X17	Y17	Z17	X18	Y18	Z18	X19	Y19	Z19	
1019	10.18000	-19.489477	930.902518	174.207648	-60.403309	1483.662441	286.400975	-55.974015	1551.589056	441.329682	62.489974	930.467111	174.181363	-101.468927	931.337925	174.233935	89.874893	539.378270	389.577681	-147.894304	496.645976	231.616659	74.304531	214.576246	231.608315	-168.995317	96.906556	120.002371	71.520983	188.736032	190.191131	-170.343628	50.675947	80.819686	52.887021	103.997533	345.649775	-157.108577	28.735607	301.639349	120.746872	1469.451626	235.649893	-231.090336	1414.331241	256.252522	198.576899	1196.049410	160.757255	-283.545150	1127.295965	240.628014	230.983994	952.921082	211.231387	-275.978338	919.557958	366.291064
1020	10.19000	-18.389991	930.912901	174.390403	-58.841740	1483.649059	285.884839	-54.386970	1551.732041	440.878691	63.492772	930.573649	174.883261	-100.272755	931.252153	173.897542	90.270795	540.962724	396.167905	-147.834894	495.118474	225.196491	76.789314	212.128505	247.531617	-169.588663	98.882358	105.173860	74.537510	184.988546	207.017497	-170.764661	53.876425	65.314575	54.252946	106.044705	364.800517	-158.275466	27.497698	283.111410	122.341108	1468.863405	234.600161	-229.884914	1414.741144	256.337884	197.790379	1195.346086	156.743467	-282.826310	1127.538593	243.804444	230.313259	950.386188	200.866475	-273.198595	923.375190	376.867816
1021	10.20000	-17.290505	930.923283	174.573158	-57.280171	1483.635678	285.368702	-52.799924	1551.875026	440.427701	64.495570	930.680186	175.585160	-99.076584	931.166380	173.561150	90.666698	542.547177	402.758130	-147.775484	493.590973	218.776322	79.274096	209.680763	263.454919	-170.182009	100.858160	90.345349	77.554037	181.241059	223.843862	-171.185694	57.076903	49.809464	55.618871	108.091877	383.951258	-159.442356	26.259788	264.583471	123.935343	1468.275184	233.550428	-228.679493	1415.151048	256.423246	197.003858	1194.642761	152.729679	-282.107470	1127.781222	246.980874	229.642523	947.851293	190.501563	-270.418851	927.192422	387.444567
1022	10.21000	-16.191019	930.933665	174.755913	-55.718603	1483.622297	284.852565	-51.212878	1552.018011	439.976710	65.498368	930.786724	176.287059	-97.880413	931.080607	173.224758	91.062600	544.131631	409.348355	-147.716075	492.063471	212.356153	81.758879	207.233022	279.378222	-170.775355	102.833963	75.516838	80.570563	177.493573	240.670228	-171.606726	60.277381	34.304352	56.984796	110.139049	403.102000	-160.609245	25.021879	246.055531	125.529579	1467.686963	232.500696	-227.474071	1415.560952	256.508608	196.217338	1193.939437	148.715891	-281.388630	1128.023850	250.157304	228.971788	945.316399	180.136651	-267.639108	931.009655	398.021319
1023	10.22000	-15.091532	930.944048	174.938668	-54.157034	1483.608916	284.336429	-49.625832	1552.160996	439.525719	66.501166	930.893261	176.988958	-96.684242	930.994834	172.888366	91.458502	545.716084	415.938579	-147.656665	490.535969	205.935984	84.243662	204.785280	295.301524	-171.368701	104.809765	60.688327	83.587090	173.746086	257.496594	-172.027759	63.477859	18.799241	58.350720	112.186222	422.252742	-161.776135	23.783969	227.527592	127.123815	1467.098742	231.450964	-226.268650	1415.970855	256.593969	195.430817	1193.236112	144.702103	-280.669791	1128.266479	253.333734	228.301053	942.781505	169.771739	-264.859365	934.826887	408.598071
1024	10.23000	-13.992046	930.954430	175.121423	-52.595465	1483.595534	283.820292	-48.038786	1552.303981	439.074728	67.503965	930.999799	177.690856	-95.488071	930.909061	172.551974	91.854404	547.300538	422.528804	-147.597255	489.008468	199.515816	86.728444	202.337539	311.224826	-171.962047	106.785568	45.859816	86.603617	169.998600	274.322960	-172.448792	66.678337	3.294130	59.716645	114.233394	441.403484	-162.943025	22.546060	208.999653	128.718051	1466.510521	230.401231	-225.063228	1416.380759	256.679331	194.644297	1192.532788	140.688315	-279.950951	1128.509108	256.510164	227.630318	940.246611	159.406828	-262.079621	938.644120	419.174822
1025	10.24000	-12.892560	930.964813	175.304178	-51.033896	1483.582153	283.304156	-46.451740	1552.446966	438.623738	68.506763	931.106337	178.392755	-94.291900	930.823288	172.215581	92.250307	548.884991	429.119028	-147.537846	487.480966	193.095647	89.213227	199.889797	327.148128	-172.555393	108.761370	31.031305	89.620144	166.251113	291.149325	-172.869825	69.878815	-12.210981	61.082570	116.280566	460.554225	-164.109914	21.308150	190.471714	130.312286	1465.922300	229.351499	-223.857807	1416.790663	256.764693	193.857776	1191.829463	136.674527	-279.232111	1128.751736	259.686594	226.959582	937.711717	149.041916	-259.299878	942.461352	429.751574
1026	10.25000	-11.793074	930.975195	175.486933	-49.472328	1483.568772	282.788019	-44.864694	1552.589951	438.172747	69.509561	931.212874	179.094654	-93.095729	930.737516	171.879189	92.646209	550.469445	435.709253	-147.478436	485.953464	186.675478	91.698010	197.442055	343.071430	-173.148739	110.737173	16.202794	92.636670	162.503626	307.975691	-173.290858	73.079293	-27.716092	62.448495	118.327738	479.704967	-165.276804	20.070241	171.943774	131.906522	1465.334079	228.301767	-222.652385	1417.200566	256.850055	193.071255	1191.126139	132.660739	-278.513272	1128.994365	262.863024	226.288847	935.176823	138.677004	-256.520135	946.278584	440.328326
1027	10.26000	-9.264821	930.776769	174.862885	-47.089758	1483.275542	282.019769	-42.548712	1552.626871	437.396808	71.855321	931.226771	178.988897	-90.384980	930.326767	170.736854	93.774365	550.983714	436.164474	-145.622358	484.981725	183.052286	95.123713	193.587114	351.302860	-170.201107	115.735077	4.574930	96.626776	157.240117	316.876062	-169.971307	79.679184	-39.886237	64.955907	118.575092	492.022150	-162.781683	21.541163	155.530256	134.392993	1464.642482	227.641511	-220.514663	1417.144004	255.897929	194.161484	1190.356303	130.139716	-276.425586	1128.762487	263.663517	228.861667	932.411151	130.920396	-253.353437	947.483257	445.009612
1028	10.27000	-6.736569	930.578343	174.238837	-44.707188	1482.982311	281.251519	-40.232729	1552.663791	436.620869	74.201081	931.240668	178.883139	-87.674232	929.916018	169.594519	94.902522	551.497983	436.619696	-143.766281	484.009986	179.429093	98.549416	189.732173	359.534291	-167.253474	120.732982	-7.052934	100.616881	151.976608	325.776433	-166.651756	86.279075	-52.056381	67.463320	118.822446	504.339333	-160.286562	23.012085	139.116737	136.879464	1463.950884	226.981256	-218.376941	1417.087443	254.945804	195.251713	1189.586468	127.618692	-274.337901	1128.530609	264.464010	231.434488	929.645479	123.163789	-250.186739	948.687929	449.690899
1029	10.28000	-4.208316	930.379917	173.614789	-42.324619	1482.689081	280.483269	-37.916747	1552.700711	435.844930	76.546841	931.254564	178.777382	-84.963483	929.505270	168.452184	96.030679	552.012251	437.074917	-141.910203	483.038247	175.805901	101.975120	185.877231	367.765721	-164.305842	125.730887	-18.680798	104.606986	146.713099	334.676803	-163.332205	92.878966	-64.226526	69.970732	119.069800	516.656516	-157.791442	24.483008	122.703218	139.365934	1463.259287	226.321000	-216.239220	1417.030881	253.993678	196.341942	1188.816632	125.097669	-272.250215	1128.298730	265.264503	234.007308	926.879807	115.407181	-247.020041	949.892601	454.372186
1030	10.29000	-1.680063	930.181491	172.990741	-39.942049	1482.395850	279.715019	-35.600765	1552.737630	435.068991	78.892600	931.268461	178.671624	-82.252735	929.094521	167.309848	97.158835	552.526520	437.530139	-140.054126	482.066508	172.182708	105.400823	182.022290	375.997152	-161.358209	130.728792	-30.308662	108.597092	141.449589	343.577174	-160.012654	99.478857	-76.396670	72.478145	119.317154	528.973699	-155.296321	25.953930	106.289699	141.852405	1462.567690	225.660745	-214.101498	1416.974319	253.041553	197.432170	1188.046797	122.576645	-270.162530	1128.066852	266.064996	236.580128	924.114135	107.650574	-243.853343	951.097273	459.053472
1031	10.30000	0.848190	929.983065	172.366693	-37.559479	1482.102620	278.946769	-33.284783	1552.774550	434.293052	81.238360	931.282357	178.565867	-79.541986	928.683772	166.167513	98.286992	553.040789	437.985360	-138.198048	481.094768	168.559515	108.826526	178.167349	384.228582	-158.410577	135.726697	-41.936526	112.587197	136.186080	352.477545	-156.693103	106.078748	-88.566815	74.985557	119.564507	541.290882	-152.801200	27.424852	89.876180	144.338876	1461.876092	225.000489	-211.963776	1416.917757	252.089427	198.522399	1187.276961	120.055622	-268.074845	1127.834974	266.865490	239.152949	921.348463	99.893966	-240.686644	952.301945	463.734759
1032	10.31000	3.376442	929.784639	171.742645	-35.176910	1481.809389	278.178519	-30.968801	1552.811470	433.517112	83.584120	931.296254	178.460109	-76.831238	928.273024	165.025178	99.415149	553.555058	438.440581	-136.341970	480.123029	164.936323	112.252230	174.312408	392.460013	-155.462944	140.724602	-53.564390	116.577303	130.922571	361.377915	-153.373553	112.678640	-100.736959	77.492969	119.811861	553.608065	-150.306079	28.895774	73.462661	146.825347	1461.184495	224.340234	-209.826054	1416.861196	251.137302	199.612628	1186.507126	117.534598	-265.987159	1127.603096	267.665983	241.725769	918.582791	92.137359	-237.519946	953.506617	468.416046
1033	10.32000	5.904695	929.586213	171.118597	-32.794340	1481.516159	277.410269	-28.652819	1552.848390	432.741173	85.929880	931.310151	178.354352	-74.120489	927.862275	163.882843	100.543305	554.069326	438.895803	-134.485893	479.151290	161.313130	115.677933	170.457466	400.691443	-152.515312	145.722507	-65.192254	120.567408	125.659062	370.278286	-150.054002	119.278531	-112.907104	80.000382	120.059215	565.925248	-147.810959	30.366697	57.049142	149.311818	1460.492898	223.679978	-207.688332	1416.804634	250.185177	200.702857	1185.737290	115.013574	-263.899474	1127.371218	268.466476	244.298589	915.817119	84.380751	-234.353248	954.711289	473.097333
1034	10.33000	8.432948	929.387787	170.494549	-30.411771	1481.222929	276.642019	-26.336836	1552.885310	431.965234	88.275640	931.324047	178.248594	-71.409741	927.451527	162.740508	101.671462	554.583595	439.351024	-132.629815	478.179551	157.689938	119.103636	166.602525	408.922874	-149.567679	150.720412	-76.820118	124.557513	120.395552	379.178656	-146.734451	125.878422	-125.077248	82.507794	120.306569	578.242431	-145.315838	31.837619	40.635623	151.798289	1459.801301	223.019723	-205.550610	1416.748072	249.233051	201.793085	1184.967455	112.492551	-261.811789	1127.139340	269.266969	246.871409	913.051447	76.624144	-231.186550	955.915961	477.778619
1035	10.34000	10.961200	929.189361	169.870501	-28.029201	1480.929698	275.873769	-24.020854	1552.922230	431.189295	90.621400	931.337944	178.142837	-68.698992	927.040778	161.598173	102.799619	555.097864	439.806246	-130.773738	477.207811	154.066745	122.529340	162.747584	417.154305	-146.620047	155.718317	-88.447982	128.547619	115.132043	388.079027	-143.414900	132.478313	-137.247392	85.015207	120.553923	590.559614	-142.820717	33.308541	24.222104	154.284759	1459.109703	222.359467	-203.412888	1416.691510	248.280926	202.883314	1184.197619	109.971527	-259.724103	1126.907462	270.067462	249.444230	910.285774	68.867536	-228.019852	957.120633	482.459906
